<svg xmlns="http://www.w3.org/2000/svg" viewBox="0 0 500 500"><defs><style>.cls-1{fill:#bc0000;}</style></defs><g id="Layer_1" data-name="Layer 1"><path class="cls-1" d="M256,46A210,210,0,0,1,404.49,404.49a210,210,0,1,1-297-297A208.59,208.59,0,0,1,256,46m0-40C117.93,6,6,117.93,6,256S117.93,506,256,506,506,394.07,506,256,394.07,6,256,6Z" transform="translate(-6 -6)"/></g><g id="Layer_2" data-name="Layer 2"><path class="cls-1" d="M108,254V108h68.3q35.49,0,53.84,10.18T248.49,148a27.39,27.39,0,0,1-7.37,18.9q-7.37,8.18-20.49,12,15,2.81,23.64,11.33a28.18,28.18,0,0,1,8.64,20.86q0,21.06-17.95,31.9T183.8,254Zm40.18-84.85h29.73q30.41-.41,30.4-18.15,0-9.93-7.7-14.3t-24.31-4.36H148.18Zm0,21.26v39.42H182.6q14.19,0,22.16-5.07t8-14q0-20.06-27.72-20.36Z" transform="translate(-6 -6)"/><path class="cls-1" d="M404,108v96.18q0,24-20,37.91T329.27,256q-34.15,0-54.24-13.54t-20.49-37.21V108h40.18v96.38q0,14.34,9.17,20.91t25.38,6.57q33.89,0,34.42-26.68V108Z" transform="translate(-6 -6)"/><path class="cls-1" d="M180.19,350.54h-32V404H108V258h72.45q34.56,0,53.31,11.54t18.75,32.59q0,15-8.64,24.92t-26.18,15.9l42.18,59.68V404H216.75Zm-32-24.37h32.41q15.14,0,23.44-5.76a18.34,18.34,0,0,0,8.3-15.9q0-10.33-7.84-16.25t-24-5.92H148.18Z" transform="translate(-6 -6)"/><path class="cls-1" d="M390.61,340.71H313.47v39.12H404V404H273.29V258H403.73v24.37H313.47v34.81h77.14Z" transform="translate(-6 -6)"/></g></svg>